<svg xmlns="http://www.w3.org/2000/svg" viewBox="0 0 880 352" width="880" height="352" font-family="Helvetica, Arial, sans-serif">
<rect width="880" height="352" fill="#ffffff"/>
<line x1="196.0" y1="44" x2="196.0" y2="344" stroke="#e3ebed" stroke-width="1"/>
<text x="196.0" y="36" font-size="17" text-anchor="middle" fill="#54666a">0:00</text>
<line x1="298.2" y1="44" x2="298.2" y2="344" stroke="#e3ebed" stroke-width="1"/>
<text x="298.2" y="36" font-size="17" text-anchor="middle" fill="#54666a">0:30</text>
<line x1="400.3" y1="44" x2="400.3" y2="344" stroke="#e3ebed" stroke-width="1"/>
<text x="400.3" y="36" font-size="17" text-anchor="middle" fill="#54666a">1:00</text>
<line x1="502.5" y1="44" x2="502.5" y2="344" stroke="#e3ebed" stroke-width="1"/>
<text x="502.5" y="36" font-size="17" text-anchor="middle" fill="#54666a">1:30</text>
<line x1="604.6" y1="44" x2="604.6" y2="344" stroke="#e3ebed" stroke-width="1"/>
<text x="604.6" y="36" font-size="17" text-anchor="middle" fill="#54666a">2:00</text>
<line x1="706.8" y1="44" x2="706.8" y2="344" stroke="#e3ebed" stroke-width="1"/>
<text x="706.8" y="36" font-size="17" text-anchor="middle" fill="#54666a">2:30</text>
<line x1="808.9" y1="44" x2="808.9" y2="344" stroke="#e3ebed" stroke-width="1"/>
<text x="808.9" y="36" font-size="17" text-anchor="middle" fill="#54666a">3:00</text>
<rect x="0" y="58.0" width="880" height="112" fill="#fafcfc"/>
<g transform="translate(14 72.0) scale(1.2)" fill="none" stroke="#2f6f7a" stroke-width="1.7" stroke-linecap="round" stroke-linejoin="round"><circle cx="12" cy="7.5" r="3.5"/><path d="M4.5 21c1-4.2 4-6.2 7.5-6.2S18.5 16.8 19.5 21"/></g>
<text x="48" y="92.0" font-size="18" font-weight="700" fill="#1d3238">Cook</text>
<rect x="196.0" y="65.0" width="44.0" height="42" rx="7" fill="#2f6f7a" fill-opacity="0.12" stroke="#2f6f7a" stroke-width="1.6"/>
<text x="247.0" y="82.0" font-size="13" font-weight="700" fill="#ffffff" stroke="#ffffff" stroke-width="4" stroke-linejoin="round" opacity="0.9">0:00-0:08</text>
<text x="247.0" y="82.0" font-size="13" font-weight="700" fill="#2f6f7a">0:00-0:08</text>
<text x="247.0" y="98.0" font-size="14" fill="#ffffff" stroke="#ffffff" stroke-width="4" stroke-linejoin="round" opacity="0.9">Cube</text>
<text x="247.0" y="98.0" font-size="14" fill="#17202a">Cube</text>
<rect x="264.1" y="65.0" width="44.0" height="42" rx="7" fill="#2f6f7a" fill-opacity="0.12" stroke="#2f6f7a" stroke-width="1.6"/>
<text x="315.1" y="82.0" font-size="13" font-weight="700" fill="#ffffff" stroke="#ffffff" stroke-width="4" stroke-linejoin="round" opacity="0.9">0:20-0:25</text>
<text x="315.1" y="82.0" font-size="13" font-weight="700" fill="#2f6f7a">0:20-0:25</text>
<text x="315.1" y="98.0" font-size="14" fill="#ffffff" stroke="#ffffff" stroke-width="4" stroke-linejoin="round" opacity="0.9">Divide</text>
<text x="315.1" y="98.0" font-size="14" fill="#17202a">Divide</text>
<rect x="383.3" y="65.0" width="68.1" height="42" rx="7" fill="#2f6f7a" fill-opacity="0.12" stroke="#2f6f7a" stroke-width="1.6"/>
<text x="458.4" y="82.0" font-size="13" font-weight="700" fill="#ffffff" stroke="#ffffff" stroke-width="4" stroke-linejoin="round" opacity="0.9">0:55-1:15</text>
<text x="458.4" y="82.0" font-size="13" font-weight="700" fill="#2f6f7a">0:55-1:15</text>
<text x="458.4" y="98.0" font-size="14" fill="#ffffff" stroke="#ffffff" stroke-width="4" stroke-linejoin="round" opacity="0.9">Assemble pie</text>
<text x="458.4" y="98.0" font-size="14" fill="#17202a">Assemble pie</text>
<rect x="723.8" y="65.0" width="102.2" height="42" rx="7" fill="#2f6f7a" fill-opacity="0.12" stroke="#2f6f7a" stroke-width="1.6"/>
<text x="832.9" y="82.0" font-size="13" font-weight="700" fill="#ffffff" stroke="#ffffff" stroke-width="4" stroke-linejoin="round" opacity="0.9">2:35-3:05</text>
<text x="832.9" y="82.0" font-size="13" font-weight="700" fill="#2f6f7a">2:35-3:05</text>
<text x="832.9" y="98.0" font-size="14" fill="#ffffff" stroke="#ffffff" stroke-width="4" stroke-linejoin="round" opacity="0.9">Cool pie</text>
<text x="832.9" y="98.0" font-size="14" fill="#17202a">Cool pie</text>
<rect x="281.1" y="121.0" width="85.1" height="42" rx="7" fill="#2f6f7a" fill-opacity="0.12" stroke="#2f6f7a" stroke-width="1.6"/>
<text x="373.3" y="138.0" font-size="13" font-weight="700" fill="#ffffff" stroke="#ffffff" stroke-width="4" stroke-linejoin="round" opacity="0.9">0:25-0:50</text>
<text x="373.3" y="138.0" font-size="13" font-weight="700" fill="#2f6f7a">0:25-0:50</text>
<text x="373.3" y="154.0" font-size="14" fill="#ffffff" stroke="#ffffff" stroke-width="4" stroke-linejoin="round" opacity="0.9">Slice apples</text>
<text x="373.3" y="154.0" font-size="14" fill="#17202a">Slice apples</text>
<g transform="translate(14 184.0) scale(1.2)" fill="none" stroke="#a3651f" stroke-width="1.7" stroke-linecap="round" stroke-linejoin="round"><path d="M4 21h13"/><path d="M6.5 21v-3.5"/><path d="M15 21v-3.5"/><path d="M5 4h9a3 3 0 0 1 3 3v2H5z"/><path d="M8.5 9v4.5"/><path d="M12 9v4.5"/></g>
<text x="48" y="204.0" font-size="18" font-weight="700" fill="#1d3238">Kenwood KWL90.244SI</text>
<rect x="223.2" y="177.0" width="44.0" height="42" rx="7" fill="#a3651f" fill-opacity="0.12" stroke="#a3651f" stroke-width="1.6"/>
<text x="274.2" y="194.0" font-size="13" font-weight="700" fill="#ffffff" stroke="#ffffff" stroke-width="4" stroke-linejoin="round" opacity="0.9">0:08-0:20</text>
<text x="274.2" y="194.0" font-size="13" font-weight="700" fill="#a3651f">0:08-0:20</text>
<text x="274.2" y="210.0" font-size="14" fill="#ffffff" stroke="#ffffff" stroke-width="4" stroke-linejoin="round" opacity="0.9">Mix dough</text>
<text x="274.2" y="210.0" font-size="14" fill="#17202a">Mix dough</text>
<rect x="0" y="226.0" width="880" height="56" fill="#fafcfc"/>
<g transform="translate(14 240.0) scale(1.2)" fill="none" stroke="#a3651f" stroke-width="1.7" stroke-linecap="round" stroke-linejoin="round"><rect x="5" y="2.5" width="14" height="19" rx="2"/><path d="M5 10h14"/><path d="M8 6v2.2"/><path d="M8 12.2v2.4"/></g>
<text x="48" y="260.0" font-size="18" font-weight="700" fill="#1d3238">Refrigerator</text>
<rect x="281.1" y="233.0" width="102.2" height="42" rx="7" fill="#a3651f" fill-opacity="0.12" stroke="#a3651f" stroke-width="1.6"/>
<text x="390.3" y="250.0" font-size="13" font-weight="700" fill="#ffffff" stroke="#ffffff" stroke-width="4" stroke-linejoin="round" opacity="0.9">0:25-0:55</text>
<text x="390.3" y="250.0" font-size="13" font-weight="700" fill="#a3651f">0:25-0:55</text>
<text x="390.3" y="266.0" font-size="14" fill="#ffffff" stroke="#ffffff" stroke-width="4" stroke-linejoin="round" opacity="0.9">Chill dough</text>
<text x="390.3" y="266.0" font-size="14" fill="#17202a">Chill dough</text>
<g transform="translate(14 296.0) scale(1.2)" fill="none" stroke="#a3651f" stroke-width="1.7" stroke-linecap="round" stroke-linejoin="round"><rect x="3" y="3" width="18" height="18" rx="2"/><path d="M3 9h18"/><circle cx="6.5" cy="6" r=".9"/><circle cx="9.5" cy="6" r=".9"/><rect x="6" y="12" width="12" height="6.5" rx="1"/></g>
<text x="48" y="316.0" font-size="18" font-weight="700" fill="#1d3238">AEG oven</text>
<rect x="349.2" y="289.0" width="51.1" height="42" rx="7" fill="#a3651f" fill-opacity="0.12" stroke="#a3651f" stroke-width="1.6"/>
<text x="407.3" y="306.0" font-size="13" font-weight="700" fill="#ffffff" stroke="#ffffff" stroke-width="4" stroke-linejoin="round" opacity="0.9">0:45-1:00</text>
<text x="407.3" y="306.0" font-size="13" font-weight="700" fill="#a3651f">0:45-1:00</text>
<text x="407.3" y="322.0" font-size="14" fill="#ffffff" stroke="#ffffff" stroke-width="4" stroke-linejoin="round" opacity="0.9">Heat</text>
<text x="407.3" y="322.0" font-size="14" fill="#17202a">Heat</text>
<rect x="451.4" y="289.0" width="272.4" height="42" rx="7" fill="#a3651f" fill-opacity="0.12" stroke="#a3651f" stroke-width="1.6"/>
<text x="459.4" y="306.0" font-size="13" font-weight="700" fill="#a3651f">1:15-2:35</text>
<text x="459.4" y="322.0" font-size="14" fill="#17202a">Bake pie</text>
</svg>
